<svg xmlns="http://www.w3.org/2000/svg" xmlns:xlink="http://www.w3.org/1999/xlink" version="1.1" x="0px" y="0px" viewBox="0 0 100 125" style="enable-background:new 0 0 100 100;" xml:space="preserve"><g><g><path d="M26.6,95.5c-5.7,0-11.2-2.2-15.6-6.4c-8.6-8.6-8.6-22.6,0-31.2L57.8,11c8.6-8.6,22.6-8.6,31.2,0    s8.6,22.6,0,31.2l-5.1-5.1c5.7-5.7,5.7-15.1,0-20.8c-5.7-5.7-15.1-5.7-20.8,0L16.1,63.2c-5.7,5.7-5.7,15.1,0,20.8    c5.7,5.7,15.1,5.7,20.8,0l31.2-31.2c2.2-2.2,2.2-5.7,0-7.7c-2-2-5.7-2-7.7,0L34.3,70.9l-5.1-5.1l25.9-25.9c2.4-2.4,5.7-3.9,9-3.9    c3.3,0,6.6,1.3,9,3.9c4.8,4.8,5,12.7,0.4,17.8l0,0L42.2,89.1C37.8,93.5,32.1,95.5,26.6,95.5z"/></g></g></svg>