<svg xmlns="http://www.w3.org/2000/svg" xmlns:xlink="http://www.w3.org/1999/xlink" version="1.0" x="0px" y="0px" viewBox="0 0 100 125" enable-background="new 0 0 100 100" xml:space="preserve" fill="#00E29E"><path d="M27.3040676,74.8652878c0.2118683,0.5911713,0.4089603,1.1893234,0.6536598,1.7638779  c4.9408627,11.6047745,16.4468288,19.7439575,29.8580608,19.7439575l36.2827148,0.2029419L49.8460007,52.3234558  L27.3040676,74.8652878z"/><path d="M72.6974716,24.9328003c-0.2118683-0.590971-0.4098816-1.1901493-0.6545792-1.7647038  C67.1020279,11.5631199,55.5961609,3.4239385,42.1848259,3.4239385H5.6992774l44.2549667,44.2519875L72.6974716,24.9328003z"/><path d="M24.8327656,27.3102245c-0.590971,0.2117634,0.019392-0.7998619-0.5551643-0.5550613  C12.6729336,31.6961269,3.5258195,44.2099266,3.5258195,57.6212616L3.5245883,94.1054764l44.051712-44.0517159  L24.8327656,27.3102245z"/><path d="M52.2223969,49.9472656l22.7447662,22.7433319c0.5910797-0.2119675,1.1890259-0.4087524,1.7636795-0.6535568  C88.3356171,67.096077,96.4747925,55.59021,96.4747925,42.178875l0.000618-36.4848289L52.2223969,49.9472656z"/></svg>