<svg xmlns:dc="http://purl.org/dc/elements/1.1/" xmlns:cc="http://creativecommons.org/ns#" xmlns:rdf="http://www.w3.org/1999/02/22-rdf-syntax-ns#" xmlns:svg="http://www.w3.org/2000/svg" xmlns="http://www.w3.org/2000/svg" xmlns:sodipodi="http://sodipodi.sourceforge.net/DTD/sodipodi-0.dtd" xmlns:inkscape="http://www.inkscape.org/namespaces/inkscape" version="1.1" x="0px" y="0px" viewBox="0 0 100 125"><g transform="translate(0,-952.36218)"><path style="text-indent:0;text-transform:none;direction:ltr;block-progression:tb;baseline-shift:baseline;color:#000000;enable-background:accumulate;" d="m 43.998153,965.36039 c -17.085201,0 -31,13.91467 -31,31 0,17.08511 13.9147,31.00001 31,31.00001 7.466099,0 14.328899,-2.6759 19.687499,-7.0938 l 18.1875,18.2188 c 1.1714,1.1714 3.078495,1.1715 4.249995,0 1.1716,-1.1715 1.1716,-3.0785 0,-4.25 l -18.218794,-18.1875 c 4.4179,-5.3587 7.0938,-12.2214 7.0938,-19.68751 0,-17.08534 -13.914901,-31 -31,-31 z m 0,6 c 13.842499,0 24.999999,11.15734 24.999999,25 0,13.84241 -11.1576,25.00001 -25,25.00001 -13.8425,0 -25,-11.1576 -25,-25.00001 0,-13.84267 11.1574,-25 25,-25 z" fill="#000000" fill-opacity="1" stroke="none" marker="none" visibility="visible" display="inline" overflow="visible"/></g><text x="0" y="115" fill="#000000" font-size="5px" font-weight="bold" font-family="'Helvetica Neue', Helvetica, Arial-Unicode, Arial, Sans-serif">Created by il Capitano</text><text x="0" y="120" fill="#000000" font-size="5px" font-weight="bold" font-family="'Helvetica Neue', Helvetica, Arial-Unicode, Arial, Sans-serif">from the Noun Project</text></svg>