<svg xmlns:dc="http://purl.org/dc/elements/1.1/" xmlns:cc="http://creativecommons.org/ns#" xmlns:rdf="http://www.w3.org/1999/02/22-rdf-syntax-ns#" xmlns:svg="http://www.w3.org/2000/svg" xmlns="http://www.w3.org/2000/svg" xmlns:sodipodi="http://sodipodi.sourceforge.net/DTD/sodipodi-0.dtd" xmlns:inkscape="http://www.inkscape.org/namespaces/inkscape" version="1.1" x="0px" y="0px" viewBox="0 0 100 125"><g transform="translate(0,-952.36218)"><path style="color:#000000;enable-background:accumulate;" d="m 10.999998,973.36217 c -2.21594,0 -4,1.78406 -4,4 l 0,41.71873 25.53125,-27.09373 c 0.30116,-0.32952 0.7156,-0.55354 1.15625,-0.625 0.66236,-0.10376 1.3701,0.15249 1.8125,0.65625 l 20.65625,23.24998 14.375,-15.28123 c 0.30116,-0.32952 0.7156,-0.55354 1.15625,-0.625 0.66236,-0.10376 1.3701,0.15249 1.8125,0.65623 l 19.500004,21.75 0,-44.40623 c 0,-2.21594 -1.78406,-4 -4,-4 z m 46,8 c 3.31371,0 6,2.68629 6,6 0,3.31371 -2.68629,6 -6,6 -3.31371,0 -6,-2.68629 -6,-6 0,-3.31371 2.68629,-6 6,-6 z m -23.03125,14.9375 -26.96875,28.59373 0,2.4688 c 0,2.2159 1.78406,4 4,4 l 54.125,0 z m 38,8.00003 -13.15625,13.9687 11.65625,13.0938 18.531254,0 c 2.08856,0 3.77965,-1.5875 3.96875,-3.625 z" fill="#000000" stroke="none" marker="none" visibility="visible" display="inline" overflow="visible"/></g></svg>